<svg xmlns="http://www.w3.org/2000/svg" viewBox="0 0 498.37 60.673">
  <title>01_lehendakaritza</title>
  <rect y="12.99" width="498.37" height="33.692" style="fill: #fff"/>
  <rect x="3.396" y="16.386" width="491.579" height="26.9" style="fill: #004a80"/>
  <path d="M72.206,23.209c-4.1,0-6.329,2.26-6.329,6.438S68.1,36.1,72.206,36.1s6.329-2.3,6.329-6.456S76.311,23.209,72.206,23.209Zm0,2.369c2.224,0,3.436,1.41,3.436,4.069s-1.212,4.087-3.436,4.087-3.454-1.429-3.454-4.087S69.982,25.578,72.206,25.578Z" style="fill: #fff;fill-rule: evenodd"/>
  <path d="M181.871,23.3a6.2,6.2,0,0,1-1.5.127h-7.256c-.488,0-.8,0-.94.416l-.778,2.278a8.268,8.268,0,0,1,2.134-.325h1.63v7.758a4.059,4.059,0,0,1-.506,2.351H178.6a4.2,4.2,0,0,1-.524-2.351V25.8H180.3c.705,0,.94,0,1.1-.651Z" style="fill: #fff;fill-rule: evenodd"/>
  <path d="M184.071,23.461h-.213c-.458,0-.589.2-.736.705l-.58,2.006a6.135,6.135,0,0,1,2.531-.541h2.535L181.5,35.938c1.145-.036,2.289-.054,3.467-.054,3.091,0,5.037.127,5.822.127.605,0,.85-.108.981-.8l.426-2.126A4.622,4.622,0,0,1,190,33.75c-.8,0-1.864-.072-3.156-.072-.327,0-.312.018-.705.036l5.987-10.252Z" style="fill: #fff;fill-rule: evenodd"/>
  <path d="M91.009,29.926V25.875a4.114,4.114,0,0,1,.524-2.427H87.608c-.361,0,0,0-.363-.072a11.757,11.757,0,0,1-1.085,2.4,7.757,7.757,0,0,1,1.9-.38h.046l.01.321-.007,7.6a5.077,5.077,0,0,1-.331,2.418,5.768,5.768,0,0,1-2.542,2.624,3.1,3.1,0,0,0,1.8.723A3.318,3.318,0,0,0,89.1,37.973a6.331,6.331,0,0,0,1.054-1.3,5.723,5.723,0,0,0,.858-3.43Z" style="fill: #fff;fill-rule: evenodd"/>
  <path d="M147.321,29.713" style="fill: none;fill-rule: evenodd"/>
  <path d="M123.951,28.941c.181.018.271.036.307.036h.488c1.537,0,2.315-.687,2.315-1.808,0-1.1-.76-1.736-2.206-1.736a7.334,7.334,0,0,0-.9.072Zm-2.683-3.51a15.263,15.263,0,0,0-1.972.346,11.769,11.769,0,0,0,1.085-2.405,5.3,5.3,0,0,0,1.067.072h2.671c.367-.01.739-.018,1.117-.018,2.966,0,4.449,1.483,4.449,3.761a3.428,3.428,0,0,1-1.772,3.2s2.079,4.863,4.434,6.265c-1.25.588-4.321-.877-5.375-2.883l-1.742-2.72a7.132,7.132,0,0,1-.9.044h-.38V33.57a4.339,4.339,0,0,0,.543,2.351H120.75a4.126,4.126,0,0,0,.524-2.351V25.794Q121.275,25.606,121.268,25.43Z" style="fill: #fff;fill-rule: evenodd"/>
  <path d="M158.048,28.941c.181.018.271.036.307.036h.488c1.537,0,2.315-.687,2.315-1.808,0-1.1-.76-1.736-2.206-1.736a7.334,7.334,0,0,0-.9.072Zm-2.683-3.51a15.266,15.266,0,0,0-1.972.346,11.763,11.763,0,0,0,1.085-2.405,5.3,5.3,0,0,0,1.067.072h2.671c.367-.01.739-.018,1.117-.018,2.966,0,4.448,1.483,4.448,3.761a3.428,3.428,0,0,1-1.772,3.2s2.078,4.863,4.434,6.265c-1.25.588-4.6-.877-5.651-2.883l-1.742-2.72a3.361,3.361,0,0,1-.622.044h-.38V33.57a4.339,4.339,0,0,0,.542,2.351h-3.743a4.126,4.126,0,0,0,.524-2.351V25.794Q155.371,25.606,155.364,25.43Z" style="fill: #fff;fill-rule: evenodd"/>
  <path d="M24.085,23.429H28.2c.6,0,.832.072.868.542l-.546,1.881a4.181,4.181,0,0,0-1.7-.217H24.633v2.658h2.753a4.194,4.194,0,0,0,1.175-.108l-.481,2.333a6.232,6.232,0,0,0-1.121-.09H24.633V33.7h3.139a4.308,4.308,0,0,0,1.772-.253L29.2,35.166c-.145.741-.235.777-1.085.777-.669,0-2.4-.09-4.242-.09-.687,0-1.537.018-2.532.054a4.959,4.959,0,0,0,.488-2.351v-7.83q0-.157-.006-.309a15.319,15.319,0,0,0-1.965.345,11.759,11.759,0,0,0,1.085-2.405,5.3,5.3,0,0,0,1.067.072h2.074Z" style="fill: #fff"/>
  <path d="M31.915,23.429h3.237a22.6,22.6,0,0,0-1.429,7c0,2.3.94,3.327,2.984,3.327a3.967,3.967,0,0,0,2.64-.814V25.816a4.18,4.18,0,0,0-.525-2.387h3.924a4.2,4.2,0,0,0-.488,2.423v7.107c0,1.266.289,2.08.977,2.5l-2.93.633a2.078,2.078,0,0,1-.615-.832,7.08,7.08,0,0,1-3.526.868c-3.562,0-5.28-1.808-5.28-5.533a33.683,33.683,0,0,1,.62-5.149,16.317,16.317,0,0,0-1.742.321,11.759,11.759,0,0,0,1.085-2.405A5.3,5.3,0,0,0,31.915,23.429Z" style="fill: #fff"/>
  <path d="M64.04,23.682l1.338.977a18.842,18.842,0,0,0-3.635,2.948l-1.664,1.7,1.845,1.953a12.768,12.768,0,0,0,4.394,3.183c-1.284,1.013-2.1,1.628-2.712,1.628-.687,0-1.844-.995-3.526-3.038l-1.79-2.152-.633.561v2.116a4.2,4.2,0,0,0,.525,2.351H54.329a4.127,4.127,0,0,0,.524-2.351V25.8q0-.2-.007-.381a15.337,15.337,0,0,0-1.96.345,11.764,11.764,0,0,0,1.085-2.405,5.3,5.3,0,0,0,1.067.072h3.143a4.15,4.15,0,0,0-.525,2.369V28.98l2.3-2.676c1.628-1.9,2.622-2.893,3.345-2.893A1.294,1.294,0,0,1,64.04,23.682Z" style="fill: #fff"/>
  <path d="M107.62,23.429h3.21a22.6,22.6,0,0,0-1.428,7c0,2.3.94,3.327,2.984,3.327a3.967,3.967,0,0,0,2.64-.814V25.816a4.18,4.18,0,0,0-.524-2.387h3.924a4.2,4.2,0,0,0-.488,2.423v7.107c0,1.266.289,2.08.977,2.5l-2.93.633a2.078,2.078,0,0,1-.615-.832,7.08,7.08,0,0,1-3.526.868c-3.562,0-5.28-1.808-5.28-5.533a33.644,33.644,0,0,1,.62-5.146,16.427,16.427,0,0,0-1.714.317,11.754,11.754,0,0,0,1.085-2.405A5.3,5.3,0,0,0,107.62,23.429Z" style="fill: #fff"/>
  <path d="M136.6,23.638a5.344,5.344,0,0,0-.446,2.383v7.631h2.5a4.8,4.8,0,0,0,1.759-.54l-.366,2.186c-.109.6-.38.687-.977.687-1.139,0-2.518-.145-4.579-.145-.561,0-1.139.036-1.7.054a3.415,3.415,0,0,0,.488-1.917V26.022c0-.2,0-.4-.014-.6a15.394,15.394,0,0,0-1.95.344,11.764,11.764,0,0,0,1.085-2.405,5.3,5.3,0,0,0,1.067.072h3.419Z" style="fill: #fff"/>
  <path d="M52.284,23.858a6.052,6.052,0,0,0-3.139-.593c-2.854,0-4.631,1.643-4.631,3.488,0,3.445,5.2,3.843,5.2,5.708,0,.687-.683,1.346-1.84,1.346a5.163,5.163,0,0,1-3.524-1.271l-.215,2.3v.054c0,.759,1.477,1.212,3.673,1.212,3.174,0,4.985-1.767,4.971-3.809-.02-2.784-1.638-3.012-3.546-4.122-1.187-.691-2-1.127-1.865-1.859.1-.568.521-.9,1.459-.9a5.707,5.707,0,0,1,2.783.64Z" style="fill: #fff;fill-rule: evenodd"/>
  <path d="M166.692,23.434a4.265,4.265,0,0,1,.524,2.369V33.56a4.2,4.2,0,0,1-.524,2.351h3.942a4.124,4.124,0,0,1-.524-2.351V25.8a4.189,4.189,0,0,1,.524-2.369Z" style="fill: #fff;fill-rule: evenodd"/>
  <path d="M101.975,32.459a8.958,8.958,0,0,1-.087,3.441h3.291c-.181-5.154-1.591-9.512-3.852-12.477H96.77A5.29,5.29,0,0,1,95.7,23.35a11.759,11.759,0,0,1-1.085,2.405,12.143,12.143,0,0,1,2.6-.38h.307a14.984,14.984,0,0,0-4.141,10.235V35.9h3.129a8.349,8.349,0,0,1,.1-3.556l2.736,1.385Zm-2.052-7.042a16,16,0,0,0-2.678,4.81l2.138,1.1,2.25-1.122A14.213,14.213,0,0,0,99.923,25.417Z" style="fill: #fff;fill-rule: evenodd"/>
  <path d="M149.853,32.459a8.96,8.96,0,0,1-.087,3.441h3.291c-.181-5.154-1.591-9.512-3.852-12.477h-4.557a5.29,5.29,0,0,1-1.067-.072,11.758,11.758,0,0,1-1.085,2.405,12.143,12.143,0,0,1,2.6-.38h.307a14.984,14.984,0,0,0-4.141,10.235V35.9H144.4a8.347,8.347,0,0,1,.1-3.556l2.736,1.385ZM147.8,25.417a15.992,15.992,0,0,0-2.678,4.81l2.138,1.1,2.25-1.122A14.214,14.214,0,0,0,147.8,25.417Z" style="fill: #fff;fill-rule: evenodd"/>
  <path d="M201.653,32.459a8.958,8.958,0,0,1-.087,3.441h3.291c-.181-5.154-1.591-9.512-3.852-12.477h-4.557a5.29,5.29,0,0,1-1.067-.072,11.753,11.753,0,0,1-1.085,2.405,12.143,12.143,0,0,1,2.6-.38h.307a14.984,14.984,0,0,0-4.141,10.235V35.9H196.2a8.351,8.351,0,0,1,.1-3.556l2.736,1.385ZM199.6,25.417a15.993,15.993,0,0,0-2.678,4.81l2.137,1.1,2.25-1.122A14.213,14.213,0,0,0,199.6,25.417Z" style="fill: #fff;fill-rule: evenodd"/>
  <path d="M393.051,23.2c-4.105,0-6.329,2.26-6.329,6.438s2.224,6.456,6.329,6.456,6.329-2.3,6.329-6.456S397.156,23.2,393.051,23.2Zm0,2.369c2.224,0,3.436,1.411,3.436,4.069s-1.212,4.087-3.436,4.087S389.6,32.3,389.6,29.641,390.827,25.572,393.051,25.572Z" style="fill: #fff;fill-rule: evenodd"/>
  <path d="M315.69,23.2c-4.105,0-6.329,2.26-6.329,6.438s2.224,6.456,6.329,6.456,6.329-2.3,6.329-6.456S319.794,23.2,315.69,23.2Zm0,2.369c2.224,0,3.436,1.411,3.436,4.069s-1.212,4.087-3.436,4.087-3.454-1.429-3.454-4.087S313.465,25.572,315.69,25.572Z" style="fill: #fff;fill-rule: evenodd"/>
  <path d="M447.716,24.422a2.784,2.784,0,0,0,.1-.38c0-.47-1.377-.868-3.294-.868-2.854,0-4.631,1.643-4.631,3.488,0,3.445,5.2,3.843,5.2,5.708,0,.687-.683,1.346-1.84,1.346a5.163,5.163,0,0,1-3.524-1.271l-.215,2.3V34.8c0,.759,1.477,1.212,3.673,1.212,3.174,0,4.985-1.767,4.971-3.809-.02-2.784-1.638-3.012-3.546-4.122-1.187-.691-2-1.127-1.865-1.859.1-.568.521-.9,1.459-.9a5.48,5.48,0,0,1,3.034.8Z" style="fill: #fff;fill-rule: evenodd"/>
  <path d="M415.281,23.4H411.75a5.3,5.3,0,0,1-1.067-.072,11.754,11.754,0,0,1-1.085,2.405,12.146,12.146,0,0,1,2.6-.38l.053.018c.728,4.227,5.036,10.723,5.036,10.723h.488l5.293-10.615a9.818,9.818,0,0,1,1.374-2.08h-3.653a2.5,2.5,0,0,1-.271.995l-2.8,6.836C413.877,24.966,415.281,23.4,415.281,23.4Z" style="fill: #fff;fill-rule: evenodd"/>
  <path d="M460.613,24.523a2.148,2.148,0,0,0,.072-.253c0-.4-1.79-1.067-4-1.067-3.87,0-6.2,2.514-6.2,6.492,0,4.069,2.315,6.4,6.311,6.4a6.276,6.276,0,0,0,3.562-.85.894.894,0,0,0,.181-.687V32.245A5.02,5.02,0,0,1,457,33.619c-2.188,0-3.6-1.428-3.6-3.96,0-2.6,1.374-4.087,3.617-4.087a4.968,4.968,0,0,1,2.948,1.013Z" style="fill: #fff;fill-rule: evenodd"/>
  <path d="M468.772,23.2c-4.1,0-6.329,2.26-6.329,6.438s2.224,6.456,6.329,6.456,6.329-2.3,6.329-6.456S472.877,23.2,468.772,23.2Zm0,2.369c2.224,0,3.436,1.411,3.436,4.069s-1.212,4.087-3.436,4.087-3.454-1.429-3.454-4.087S466.548,25.572,468.772,25.572Z" style="fill: #fff;fill-rule: evenodd"/>
  <path d="M303.386,33.33a2.885,2.885,0,0,1-1.638.344c-1.937,0-3.279-1.555-3.279-4.014,0-2.586,1.438-4.123,3.931-4.123a5.622,5.622,0,0,1,3.126.976l.575-1.79a.523.523,0,0,0,.058-.2c0-.325,0-.4-.46-.6a9.029,9.029,0,0,0-3.605-.723c-4.123,0-6.731,2.514-6.731,6.4,0,4.051,2.474,6.492,6.578,6.492a10.723,10.723,0,0,0,4.181-.868l.005-3.836a4.115,4.115,0,0,1,.524-2.428h-3.686a5.291,5.291,0,0,1-1.067-.072,11.758,11.758,0,0,1-1.085,2.405,12.145,12.145,0,0,1,2.6-.38h.046l.01.321,0,1.958Z" style="fill: #fff;fill-rule: evenodd"/>
  <path d="M327.959,28.375c.325.036,1.023.054,1.1.054,1.447,0,2.17-.506,2.17-1.591a1.492,1.492,0,0,0-1.682-1.519,3.926,3.926,0,0,0-1.584.307Zm0,5.407a12.924,12.924,0,0,0,1.385.072c1.338,0,2.134-.687,2.134-1.844s-.741-1.844-2.1-1.844c-.308,0-1.1.018-1.421.036Zm-2.713-8.532a14.373,14.373,0,0,0-2.168.362,11.764,11.764,0,0,0,1.085-2.405,5.3,5.3,0,0,0,1.067.072h2.315c.38-.009,2.016,0,2.956,0a3.146,3.146,0,0,1,3.418,3.146,3.006,3.006,0,0,1-1.483,2.731,3.094,3.094,0,0,1,1.881,2.911c0,2.351-1.754,3.852-5.154,3.852-.85,0-2.253-.09-3.229-.09q-.3,0-1.139.054a4.293,4.293,0,0,0,.452-2.025Z" style="fill: #fff"/>
  <path d="M373.09,23.4l.829,0,6.058,8.355V25.771a4.3,4.3,0,0,0-.524-2.369h3.8a4.228,4.228,0,0,0-.524,2.369v8.354a10.762,10.762,0,0,0,.145,1.754h-2.658L373.774,27v6.528a4.278,4.278,0,0,0,.506,2.351h-3.8a4.127,4.127,0,0,0,.524-2.351V25.771q0-.206-.007-.4a14.559,14.559,0,0,0-2.129.36,11.758,11.758,0,0,0,1.085-2.405,5.3,5.3,0,0,0,1.067.072h2.066Z" style="fill: #fff"/>
  <path d="M348.5,23.4h4.115c.6,0,.832.072.868.542l-.546,1.881a4.18,4.18,0,0,0-1.7-.217H349.05v2.658H351.8a4.19,4.19,0,0,0,1.175-.108l-.481,2.333a6.223,6.223,0,0,0-1.121-.09H349.05v3.273h3.139a4.307,4.307,0,0,0,1.772-.253l-.344,1.718c-.145.741-.235.778-1.085.778-.669,0-2.4-.09-4.242-.09-.687,0-1.537.018-2.532.054a4.958,4.958,0,0,0,.488-2.351V25.7q0-.157-.006-.31a15.339,15.339,0,0,0-1.965.345,11.759,11.759,0,0,0,1.085-2.405,5.3,5.3,0,0,0,1.067.072H348.5Z" style="fill: #fff"/>
  <path d="M337.519,23.407a4.265,4.265,0,0,1,.524,2.369v7.758a4.2,4.2,0,0,1-.524,2.351h3.942a4.124,4.124,0,0,1-.524-2.351V25.776a4.188,4.188,0,0,1,.524-2.369Z" style="fill: #fff;fill-rule: evenodd"/>
  <path d="M360.128,28.93c.181.018.271.036.308.036h.488c1.537,0,2.315-.687,2.315-1.808,0-1.1-.76-1.736-2.206-1.736a7.335,7.335,0,0,0-.9.072Zm-2.683-3.51a15.281,15.281,0,0,0-1.972.346,11.769,11.769,0,0,0,1.085-2.405,5.3,5.3,0,0,0,1.067.072H360.3c.367-.01.739-.018,1.117-.018,2.966,0,4.449,1.483,4.449,3.761a3.428,3.428,0,0,1-1.772,3.2s2.079,4.863,4.435,6.265c-1.25.588-4.6-.877-5.652-2.883l-1.742-2.72a3.352,3.352,0,0,1-.622.044h-.38V33.56a4.339,4.339,0,0,0,.543,2.351h-3.743a4.126,4.126,0,0,0,.525-2.351V25.784Q357.452,25.6,357.445,25.42Z" style="fill: #fff;fill-rule: evenodd"/>
  <path d="M433.63,32.451a8.958,8.958,0,0,1-.087,3.441h3.291c-.181-5.154-1.591-9.512-3.852-12.478h-4.557a5.29,5.29,0,0,1-1.067-.072,11.759,11.759,0,0,1-1.085,2.405,12.145,12.145,0,0,1,2.6-.38h.307A14.984,14.984,0,0,0,425.044,35.6v.289h3.128a8.351,8.351,0,0,1,.1-3.556l2.736,1.385Zm-2.052-7.042a16,16,0,0,0-2.679,4.81l2.138,1.1,2.25-1.122A14.213,14.213,0,0,0,431.578,25.409Z" style="fill: #fff;fill-rule: evenodd"/>
  <path d="M270.07,34.421l-.274-.007V45.258l.274,0c.24-.443.679-.486,1.166-.59-.035-1.285.934-1.16.934-1.16a4.334,4.334,0,0,1,.763-3.047c-.695-1.667.451-1.979.451-1.979.1-.521.212-.689-.135-.827a.572.572,0,0,0-.521-.868c.243-.868-1.224-1.147-1.328-.765A1.636,1.636,0,0,1,270.07,34.421Z" style="fill: #00a651;stroke: #231f20;stroke-miterlimit: 3.8636900000000005;stroke-width: 0.2772px;fill-rule: evenodd"/>
  <path d="M270.07,44.213l-.274,0v4.746h.274c2.492.746,3.1-1.129,3.1-1.129,1.424-.035,1.231-1.244,1.231-1.244.806-.444.361-1.472.361-1.472.806-.931-.418-1.794-.418-1.794.153-.5.365-.358.365-.358a1.11,1.11,0,0,1-.034-.584l-.817.553c-.486.195-.265-.079-.265-.079a1.66,1.66,0,0,1,.628-1.758c.973.626,1.451-.1,1.451-.1,1.728.659,1.953-1.352,1.953-1.352,1.9.194,1.632-1.715,1.632-1.715,1.28-.282,1.4-1.461.486-1.611-.07-1.4-1.71-.6-1.779-.009-1.549-1.161-1.788.791-1.788.791a1.8,1.8,0,0,0-2.169,1.669,1.235,1.235,0,0,0-.375,1.778,2.646,2.646,0,0,0-.606,2.67c-1.694-.066-1.764,1.079-1.764,1.079A.818.818,0,0,0,270.07,44.213Z" style="fill: #00a651;stroke: #231f20;stroke-miterlimit: 3.8636900000000005;stroke-width: 0.2772px;fill-rule: evenodd"/>
  <path d="M254.332,5.749c-1.473-.792-.84-1.823-.84-1.823-1.675-.311-1.008-2.078-1.008-2.078-1.375-1.192,0-2.322,1.268-1.329,1.314-1.161,2.124,1.115,2.124,1.115,1.742-.779,1.757,1.788,1.757,1.788l.886-.153c1.841.415.55,1.344.55,1.344a.765.765,0,0,1-.2,1.135l.006.319h-4.427Z" style="fill: #00a651;stroke: #231f20;stroke-miterlimit: 3.8636900000000005;stroke-width: 0.2772px;fill-rule: evenodd"/>
  <path d="M260.671,5.765l-.208-.619c-.45-2.157,1.992-1.91,1.992-1.91l1.069.214a1.627,1.627,0,0,1,2.628.306c1.635-.978,2.414,1.214,2.552,2.009a2.136,2.136,0,0,0-.036.3h-8Z" style="fill: #00a651;stroke: #231f20;stroke-miterlimit: 3.8636900000000005;stroke-width: 0.2772px;fill-rule: evenodd"/>
  <polygon points="260.081 4.767 259.943 6.068 259.457 6.068 259.629 4.732 260.081 4.767" style="fill: #00a651;stroke: #231f20;stroke-miterlimit: 3.8636900000000005;stroke-width: 0.2772px;fill-rule: evenodd"/>
  <path d="M259.523,4.745l.413.072c.719.148,1.414-1.273,1.414-1.273l-.4-.1.152-.608c.307-1.34-.574-1.394-.574-1.394-.906-.281-1.187.955-1.187.955l-.152.608-.427-.106C258.519,4.456,259.523,4.745,259.523,4.745Z" style="fill: #d1be6b;stroke: #231f20;stroke-miterlimit: 3.8636900000000005;stroke-width: 0.2772px;fill-rule: evenodd"/>
  <path d="M271.816,15.309h0q-.036-.173-.058-.328c-.309-2.091,1.3-1.685,1.3-1.685a1.217,1.217,0,0,1,.514-1.01,1.475,1.475,0,0,1,1.131-1.685c1.32.243,1.077,1.042.812,1.447,1.445.185.428,1.925.428,1.925a1.645,1.645,0,0,1-.356,2.047,1.512,1.512,0,0,1-.55,2.108,2.086,2.086,0,0,1-1.711,2.414c.03,2.2.55,2.231.55,2.231.124-.6.679-.775.817-1.233-.278-.382.013-1.035.013-1.035,1.111-.521.938-2.153.938-2.153.972-.486.76-2.1.587-2.3.382-.972.994-.806,1.126-.235,1.885-1.251,1.438.947,1.19,1.249.825,1.528-.278,1.979-.278,1.979a1.352,1.352,0,0,1-.9,1.626s.2.839-.907.943c-.208.417-.347.9-1.458.382a2.214,2.214,0,0,0-.66,1.667,4.944,4.944,0,0,0,.136,2.04l.871-1.008c.451.114.474.4.474.4-.412.428-.856.932-.856.932a12.347,12.347,0,0,0-.278,3.889c.244,2.292-.9,2.083-.9,2.083.625.694-.347,1.389-.347,1.389a10.225,10.225,0,0,1-.833.833c-.229.687.76.82.888.857a3.907,3.907,0,0,1,1.474-2.524c-.625-.9.422-1.537.422-1.537s-.926-1.294-.021-2.257a.5.5,0,0,0-.019-.779,1.824,1.824,0,0,1,1.591-2.029c-.061-1.131,1.161-1.3,1.161-1.3.489-1.421,1.45-.849,1.554-.4a.93.93,0,0,1,1.076,1.493,1.939,1.939,0,0,1-.6,2.783c1.014,1-.826,2.008-.826,2.008.486.694-.07,1.493-1.493,1.562-.6,1.268-2.339.788-2.339.788-1.986,1.6-.944,2.606-.944,2.606l.858-.532c.137.206.24.378.24.378-1.167.893-1.037,1.621-1.037,1.621-.045-.023.325.154.316.336a1.169,1.169,0,0,0-.618.584c-.7-2.708-1.44-1.9-2.067-2.863-.666,0-1.715-.4-1.792-1.3-.144-.274-.371-.015-.371-.015l-.273-.005V26.135h.276c2.032.015,1.984,1.49,1.984,1.49,1.253,0,1.044.9,1.044.9,1.32-.069.972,1.519.972,1.519a6.509,6.509,0,0,0,0-2.478c-.886.168-1.253-.856-1.253-.856-1.336-.235-1.65-1.784-1.65-1.784a1.027,1.027,0,0,1-1.1-.3l-.273,0V7.456l.273-.009a2.174,2.174,0,0,1,2.3,2.265c1.07.489,1.131,1.1,1.131,1.1-.385.22-.535.485-.6,1.179a1.425,1.425,0,0,0-.486.8C270.4,13.413,271.815,15.307,271.816,15.309Zm-.485,2.931-.878,1.029a4.365,4.365,0,0,1,2.06,3.433c.886.428.626.254.626.254a5.094,5.094,0,0,1-.336-2.536A2.069,2.069,0,0,1,271.331,18.24Z" style="fill: #00a651;stroke: #231f20;stroke-miterlimit: 3.8636900000000005;stroke-width: 0.2772px;fill-rule: evenodd"/>
  <path d="M275.382,24.871l.317.213c.542.389,1.645-.534,1.645-.534l-.3-.232.351-.449c.75-1,.039-1.37.039-1.37-.649-.568-1.339.355-1.339.355l-.351.449-.315-.246C274.654,24.26,275.382,24.871,275.382,24.871Z" style="fill: #d1be6b;stroke: #231f20;stroke-miterlimit: 3.8636900000000005;stroke-width: 0.2772px;fill-rule: evenodd"/>
  <path d="M275.456,35.043l.208.319c.347.569,1.723.151,1.723.151l-.182-.329.5-.276c1.081-.627.571-1.246.571-1.246-.375-.777-1.371-.2-1.371-.2l-.5.276-.194-.35C275.025,34.2,275.456,35.043,275.456,35.043Z" style="fill: #d1be6b;stroke: #231f20;stroke-miterlimit: 3.8636900000000005;stroke-width: 0.2772px;fill-rule: evenodd"/>
  <path d="M274.621,42.7l.087.371c.132.654,1.567.731,1.567.731l-.059-.371.563-.089c1.23-.219.963-.975.963-.975-.087-.858-1.221-.654-1.221-.654l-.563.089-.063-.4C274.506,41.76,274.621,42.7,274.621,42.7Z" style="fill: #d1be6b;stroke: #231f20;stroke-miterlimit: 3.8636900000000005;stroke-width: 0.2772px;fill-rule: evenodd"/>
  <path d="M228.244,34.421l.327-.007V45.258l-.327,0c-.24-.443-.68-.486-1.166-.59.035-1.285-.934-1.16-.934-1.16a4.334,4.334,0,0,0-.763-3.047c.694-1.667-.451-1.979-.451-1.979-.1-.521-.212-.689.135-.827a.572.572,0,0,1,.521-.868c-.243-.868,1.224-1.147,1.328-.765A1.636,1.636,0,0,0,228.244,34.421Z" style="fill: #00a651;stroke: #231f20;stroke-miterlimit: 3.8636900000000005;stroke-width: 0.2772px;fill-rule: evenodd"/>
  <path d="M228.244,44.213l.327,0v4.746h-.327c-2.492.746-3.1-1.129-3.1-1.129-1.424-.035-1.231-1.244-1.231-1.244-.806-.444-.361-1.472-.361-1.472-.806-.931.419-1.794.419-1.794-.153-.5-.365-.358-.365-.358a1.11,1.11,0,0,0,.034-.584l.817.553c.486.195.266-.079.266-.079a1.66,1.66,0,0,0-.628-1.758c-.973.626-1.451-.1-1.451-.1-1.728.659-1.953-1.352-1.953-1.352-1.9.194-1.632-1.715-1.632-1.715-1.28-.282-1.4-1.461-.486-1.611.07-1.4,1.71-.6,1.779-.009,1.549-1.161,1.788.791,1.788.791a1.8,1.8,0,0,1,2.169,1.669,1.235,1.235,0,0,1,.375,1.778,2.646,2.646,0,0,1,.606,2.67c1.694-.066,1.764,1.079,1.764,1.079A.818.818,0,0,1,228.244,44.213Z" style="fill: #00a651;stroke: #231f20;stroke-miterlimit: 3.8636900000000005;stroke-width: 0.2772px;fill-rule: evenodd"/>
  <path d="M243.982,5.749c1.473-.792.84-1.823.84-1.823,1.675-.311,1.008-2.078,1.008-2.078,1.375-1.192,0-2.322-1.268-1.329-1.314-1.161-2.124,1.115-2.124,1.115-1.742-.779-1.757,1.788-1.757,1.788l-.886-.153c-1.84.415-.55,1.344-.55,1.344a.765.765,0,0,0,.2,1.135l-.006.319h4.427Z" style="fill: #00a651;stroke: #231f20;stroke-miterlimit: 3.8636900000000005;stroke-width: 0.2772px;fill-rule: evenodd"/>
  <path d="M237.643,5.765l.208-.619c.45-2.157-1.992-1.91-1.992-1.91l-1.07.214a1.627,1.627,0,0,0-2.628.306c-1.635-.978-2.414,1.214-2.551,2.009a2.135,2.135,0,0,1,.036.3h8Z" style="fill: #00a651;stroke: #231f20;stroke-miterlimit: 3.8636900000000005;stroke-width: 0.2772px;fill-rule: evenodd"/>
  <polygon points="238.233 4.767 238.371 6.068 238.858 6.068 238.685 4.732 238.233 4.767" style="fill: #00a651;stroke: #231f20;stroke-miterlimit: 3.86371;stroke-width: 0.2535px;fill-rule: evenodd"/>
  <path d="M238.791,4.745l-.413.072c-.719.148-1.414-1.273-1.414-1.273l.4-.1-.152-.608c-.306-1.34.574-1.394.574-1.394.906-.281,1.187.955,1.187.955l.152.608.427-.106C239.8,4.456,238.791,4.745,238.791,4.745Z" style="fill: #d1be6b;stroke: #231f20;stroke-miterlimit: 3.8636900000000005;stroke-width: 0.2772px;fill-rule: evenodd"/>
  <path d="M226.5,15.309h0q.036-.173.058-.328c.31-2.091-1.3-1.685-1.3-1.685a1.217,1.217,0,0,0-.514-1.01,1.476,1.476,0,0,0-1.131-1.685c-1.32.243-1.076,1.042-.812,1.447-1.445.185-.428,1.925-.428,1.925a1.645,1.645,0,0,0,.356,2.047,1.512,1.512,0,0,0,.55,2.108,2.086,2.086,0,0,0,1.711,2.414c-.031,2.2-.55,2.231-.55,2.231-.124-.6-.679-.775-.817-1.233.278-.382-.013-1.035-.013-1.035-1.111-.521-.937-2.153-.937-2.153-.972-.486-.76-2.1-.587-2.3-.382-.972-.994-.806-1.126-.235-1.885-1.251-1.437.947-1.19,1.249-.825,1.528.278,1.979.278,1.979a1.352,1.352,0,0,0,.9,1.626s-.2.839.907.943c.208.417.347.9,1.458.382a2.214,2.214,0,0,1,.66,1.667,4.944,4.944,0,0,1-.136,2.04l-.871-1.008c-.452.114-.474.4-.474.4.412.428.856.932.856.932a12.35,12.35,0,0,1,.278,3.889c-.244,2.292.9,2.083.9,2.083-.625.694.347,1.389.347,1.389a10.209,10.209,0,0,0,.833.833c.229.687-.761.82-.888.857a3.906,3.906,0,0,0-1.474-2.524c.625-.9-.422-1.537-.422-1.537s.926-1.294.021-2.257a.5.5,0,0,1,.019-.779,1.824,1.824,0,0,0-1.591-2.029c.061-1.131-1.161-1.3-1.161-1.3-.489-1.421-1.45-.849-1.554-.4a.93.93,0,0,0-1.077,1.493,1.939,1.939,0,0,0,.6,2.783c-1.014,1,.826,2.008.826,2.008-.486.694.07,1.493,1.493,1.562.6,1.268,2.339.788,2.339.788,1.986,1.6.944,2.606.944,2.606l-.858-.532c-.137.206-.24.378-.24.378,1.167.893,1.037,1.621,1.037,1.621.045-.023-.325.154-.316.336a1.169,1.169,0,0,1,.618.584c.7-2.708,1.44-1.9,2.067-2.863.666,0,1.715-.4,1.792-1.3.144-.274.371-.015.371-.015l.326-.005V26.135h-.329c-2.032.015-1.984,1.49-1.984,1.49-1.253,0-1.044.9-1.044.9-1.319-.069-.972,1.519-.972,1.519a6.511,6.511,0,0,1,0-2.478c.886.168,1.253-.856,1.253-.856,1.336-.235,1.65-1.784,1.65-1.784a1.027,1.027,0,0,0,1.1-.3l.325,0V7.456l-.326-.009a2.174,2.174,0,0,0-2.3,2.265c-1.069.489-1.131,1.1-1.131,1.1.385.22.535.485.6,1.179a1.425,1.425,0,0,1,.486.8C227.912,13.413,226.5,15.307,226.5,15.309Zm.485,2.931.878,1.029A4.365,4.365,0,0,0,225.8,22.7c-.886.428-.626.254-.626.254a5.094,5.094,0,0,0,.336-2.536A2.069,2.069,0,0,0,226.983,18.24Z" style="fill: #00a651;stroke: #231f20;stroke-miterlimit: 3.8636900000000005;stroke-width: 0.2772px;fill-rule: evenodd"/>
  <path d="M222.932,24.871l-.317.213c-.542.389-1.645-.534-1.645-.534l.3-.232-.351-.449c-.75-1-.039-1.37-.039-1.37.649-.568,1.339.355,1.339.355l.351.449.315-.246C223.66,24.26,222.932,24.871,222.932,24.871Z" style="fill: #d1be6b;stroke: #231f20;stroke-miterlimit: 3.8636900000000005;stroke-width: 0.2772px;fill-rule: evenodd"/>
  <path d="M222.858,35.043l-.208.319c-.347.569-1.723.151-1.723.151l.182-.329-.5-.276c-1.081-.627-.571-1.246-.571-1.246.375-.777,1.371-.2,1.371-.2l.5.276.194-.35C223.289,34.2,222.858,35.043,222.858,35.043Z" style="fill: #d1be6b;stroke: #231f20;stroke-miterlimit: 3.8636900000000005;stroke-width: 0.2772px;fill-rule: evenodd"/>
  <path d="M223.693,42.7l-.087.371c-.132.654-1.567.731-1.567.731l.059-.371-.563-.089c-1.23-.219-.963-.975-.963-.975.087-.858,1.221-.654,1.221-.654l.563.089.063-.4C223.808,41.76,223.693,42.7,223.693,42.7Z" style="fill: #d1be6b;stroke: #231f20;stroke-miterlimit: 3.8636900000000005;stroke-width: 0.2772px;fill-rule: evenodd"/>
  <path d="M233.863,55.439s10.963-.114,14.825,3.919l.472.54V29.266H269.8V6.053H228.572V49.706S229.148,54.758,233.863,55.439Z" style="fill: #d1be6b;fill-rule: evenodd"/>
  <path d="M241.881,40.556a3.234,3.234,0,0,1-2.056,2.056V45h-1.635V42.612a3.13,3.13,0,0,1-2.087-2.056,3.228,3.228,0,0,1-2.046,2.056V45h-1.635V42.612a3.13,3.13,0,0,1-2.087-2.056,8.884,8.884,0,0,1,1.472-6.861c1.445-2.444,2.832,0,2.832,0a8.032,8.032,0,0,1,1.466,3.134,8.934,8.934,0,0,1,1.469-3.134c1.445-2.444,2.832,0,2.832,0a7.847,7.847,0,0,1,1.424,3.118,9.38,9.38,0,0,1,1.422-3.118c1.445-2.444,2.832,0,2.832,0a8.715,8.715,0,0,1,1.473,6.861,3.234,3.234,0,0,1-2.056,2.056V45h-1.635V42.612A2.85,2.85,0,0,1,241.881,40.556Z" style="fill: #00a651;fill-rule: evenodd"/>
  <path d="M249.16,44.719a2.067,2.067,0,0,1-2.628.281,3.573,3.573,0,0,0-3.472,0,1.731,1.731,0,0,1-2.361,0,3.845,3.845,0,0,0-3.611.111,1.648,1.648,0,0,1-2.139-.083,3.541,3.541,0,0,0-3.389.056s-.945.806-1.778.285l-1.21-.689v5.027s.577,5.051,5.291,5.733c0,0,10.963-.114,14.825,3.919l.472.54Z" style="fill: #005b94;fill-rule: evenodd"/>
  <path d="M249.16,49.108a2.067,2.067,0,0,1-2.628.281,3.573,3.573,0,0,0-3.472,0,1.731,1.731,0,0,1-2.361,0,3.846,3.846,0,0,0-3.611.111,1.648,1.648,0,0,1-2.139-.083,3.541,3.541,0,0,0-3.389.056s-.945.806-1.778.285l-1.21-.694v-1.94l1.21.689c.833.52,1.778-.285,1.778-.285a3.541,3.541,0,0,1,3.389-.056,1.648,1.648,0,0,0,2.139.083,3.846,3.846,0,0,1,3.611-.111,1.731,1.731,0,0,0,2.361,0,3.573,3.573,0,0,1,3.472,0,2.057,2.057,0,0,0,2.628-.315Z" style="fill: #fff;fill-rule: evenodd"/>
  <path d="M229.24,51.888l.542.315c.833.52,1.778-.285,1.778-.285a3.541,3.541,0,0,1,3.389-.056,1.648,1.648,0,0,0,2.139.083,3.845,3.845,0,0,1,3.611-.111,1.731,1.731,0,0,0,2.361,0,3.573,3.573,0,0,1,3.472,0,2.057,2.057,0,0,0,2.628-.315V53.5a2.067,2.067,0,0,1-2.628.281,3.573,3.573,0,0,0-3.472,0,1.731,1.731,0,0,1-2.361,0,3.845,3.845,0,0,0-3.611.111,1.648,1.648,0,0,1-2.139-.083,3.541,3.541,0,0,0-3.389.056,2.21,2.21,0,0,1-.544.33,3.62,3.62,0,0,1-.97-.929A5.058,5.058,0,0,1,229.24,51.888Z" style="fill: #fff;fill-rule: evenodd"/>
  <path d="M249.16,59.9l-.472-.54a9,9,0,0,0-2.264-1.608,20.742,20.742,0,0,0-3.751-1.313c.241-.127.387-.214.387-.214a3.573,3.573,0,0,1,3.472,0,2.057,2.057,0,0,0,2.628-.315Z" style="fill: #fff;fill-rule: evenodd"/>
  <path d="M237.4,22.953l.4-.386-.1-.153.3-1.353.208-.014.125-2.319-.236-.111.181-3.306.695-.889a.68.68,0,0,1,.5-.361.656.656,0,0,1,.82.278.481.481,0,0,1,.528.389s.375-.069.444.43c0,0,.528-.028.389.458l-.25.333a.243.243,0,0,0-.014.4l-.083.264s-.111.333-.653.319a.309.309,0,0,0-.347.375l.278,1.472h-.347l.389,3.389.194.125-.1,1.014a.216.216,0,0,1-.153.25l-1.042,1.1-.139-.056-.251.257Z" style="fill: #33a3dc;fill-rule: evenodd"/>
  <polygon points="235.505 15.933 235.505 14.629 235.997 14.629 235.997 15.109 236.576 15.109 236.576 14.629 237.107 14.629 237.107 16.769 236.523 17.203 236.523 19.16 237.048 19.778 237.048 22.688 230.541 22.688 230.541 19.778 230.962 19.16 230.962 17.203 230.379 16.769 230.379 14.629 230.909 14.629 230.909 15.109 231.488 15.109 231.488 14.629 231.98 14.629 231.98 16.002 232.747 16.002 232.747 13.702 233.434 13.702 233.434 14.183 234.052 14.183 234.052 13.702 234.738 13.702 234.738 15.933 235.505 15.933" style="fill: #956338;fill-rule: evenodd"/>
  <rect x="232.404" y="17.572" width="0.741" height="1.084" style="fill: #33a3dc"/>
  <rect x="234.322" y="17.572" width="0.741" height="1.084" style="fill: #33a3dc"/>
  <path d="M233.122,22.688V21.359a.682.682,0,1,1,1.364,0v1.329Z" style="fill: #33a3dc;fill-rule: evenodd"/>
  <polygon points="240.093 25.918 237.156 22.688 230.461 22.688 228.572 24.476 228.572 25.157 240.093 25.918" style="fill: #fff;stroke: #77787b;stroke-miterlimit: 3.86371;stroke-width: 0.16140000000000002px;fill-rule: evenodd"/>
  <polygon points="240.093 25.918 237.156 22.688 230.461 22.688 228.572 24.476 228.572 25.157 240.093 25.918" style="fill: #77787b;fill-rule: evenodd"/>
  <path d="M247.049,58.094a4.827,4.827,0,0,1-3.156,2.324,1.917,1.917,0,0,1-2.195-1.444,3.81,3.81,0,0,1-2.611,1.083c-2-.111-1.722-1.778-1.722-1.778a2.058,2.058,0,0,1-2,.167,3.08,3.08,0,0,0-2.083-.583,6.983,6.983,0,0,0-2.111.482,1.033,1.033,0,0,1,0-.889,8.946,8.946,0,0,1,2.472-.509,8.611,8.611,0,0,1,2.056.5,1.652,1.652,0,0,0,1.389-.111,8.868,8.868,0,0,0,1.255-1.638c.393.043.668.07,1.195.159-.32.515-1.255,1.353-1.3,2.076a1.05,1.05,0,0,0,.444,1,1.835,1.835,0,0,0,1.861-.264A4.335,4.335,0,0,0,242.1,56.3c.428.095.916.213,1.338.329-.369.455-1.173,1.289-.935,1.982a1.416,1.416,0,0,0,1.264.778c.793.042,1.8-.957,2.261-1.832C246.029,57.558,246.7,57.889,247.049,58.094Z" style="fill: #00a651;fill-rule: evenodd"/>
  <path d="M251.276,58.094a4.827,4.827,0,0,0,3.156,2.324,1.917,1.917,0,0,0,2.194-1.444,3.81,3.81,0,0,0,2.611,1.083c2-.111,1.722-1.778,1.722-1.778a2.058,2.058,0,0,0,2,.167,3.079,3.079,0,0,1,2.083-.583,6.983,6.983,0,0,1,2.111.482,1.033,1.033,0,0,0,0-.889,8.945,8.945,0,0,0-2.472-.509,8.611,8.611,0,0,0-2.056.5,1.652,1.652,0,0,1-1.389-.111,8.865,8.865,0,0,1-1.255-1.638c-.393.043-.778.115-1.194.174.32.515,1.255,1.339,1.3,2.061a1.05,1.05,0,0,1-.445,1,1.835,1.835,0,0,1-1.861-.264,4.335,4.335,0,0,1-1.556-2.366c-.428.095-.916.213-1.338.329.369.455,1.173,1.289.935,1.982a1.416,1.416,0,0,1-1.264.778c-.793.042-1.828-.99-2.286-1.865C252.271,57.525,251.625,57.889,251.276,58.094Z" style="fill: #00a651;fill-rule: evenodd"/>
  <path d="M249.16,59.9l.462-.54c3.862-4.033,14.825-3.919,14.825-3.919,4.715-.681,5.348-5.733,5.348-5.733V29.266H249.16Z" style="fill: #ed1c24;fill-rule: evenodd"/>
  <rect x="252.786" y="9.78" width="13.378" height="15.717" style="fill: #fff"/>
  <rect x="252.786" y="9.78" width="13.378" height="15.717" style="fill: #c7c8ca"/>
  <polygon points="258.294 11.527 260.656 11.527 260.656 15.763 264.878 15.75 264.878 18.111 254.072 18.111 254.072 15.75 258.285 15.75 258.294 11.527" style="fill: #fff;fill-rule: evenodd"/>
  <path d="M257.213,20.464h4.639a1.671,1.671,0,0,0,1.195-1.972,1.867,1.867,0,0,0,0-3.028c.25-2.361-2.139-2.111-2.139-2.111a1.822,1.822,0,0,0-2.945,0,1.851,1.851,0,0,0-2.083,2.111c-1.722,1.694,0,2.889,0,2.889C255.852,20.38,257.213,20.464,257.213,20.464Z" style="fill: #00a651;fill-rule: evenodd"/>
  <path d="M258.545,22.333v-1.5a.755.755,0,0,0-.458-.373h2.695s-.417.123-.389.373v1.5s-.014.361.486.667h5.286v2.5H252.786V23H258.1A.8.8,0,0,0,258.545,22.333Z" style="fill: #956338;fill-rule: evenodd"/>
  <path d="M244.22,15.784l-.931,0v.778l.736.057a.648.648,0,0,1,.36.862c-.39.666-1.1-.03-1.1-.03l-1-1.3-.126.791H241.4l1.667,2.145-1.322,1.164.875,0v.792l1.266-.928.624.7-1.156,1.873c-.265.527.388.834.388.834l-1.142,1.956.681-.11.36.695,1.337-2.248-.027-.458.668-.971,0,1.361c.277.667.8.446.8.446l0,2.142.612-.433.666.524,0-2.69h-.347l.006-5.542.7-.6-.694-.585-.473.471-.006,3.181-.873-1.168.475-1.332h-.444l.516-1.385h-.5l.627-1.322-2.458,0Z" style="fill: #ed1c24;fill-rule: evenodd"/>
  <polygon points="249.897 7.311 250.387 6.821 251.178 7.611 251.968 6.821 252.458 7.311 251.667 8.101 252.458 8.891 251.968 9.382 251.177 8.591 250.387 9.382 249.897 8.891 250.688 8.101 249.897 7.311" style="fill: #ed1c24;fill-rule: evenodd"/>
  <polygon points="249.897 16.853 250.387 16.363 251.178 17.153 251.968 16.363 252.458 16.853 251.667 17.643 252.458 18.434 251.968 18.924 251.177 18.133 250.387 18.924 249.897 18.434 250.688 17.643 249.897 16.853" style="fill: #ed1c24;fill-rule: evenodd"/>
  <polygon points="249.897 26.395 250.387 25.905 251.178 26.696 251.968 25.905 252.458 26.395 251.667 27.186 252.458 27.976 251.968 28.466 251.177 27.676 250.387 28.466 249.897 27.976 250.688 27.185 249.897 26.395" style="fill: #ed1c24;fill-rule: evenodd"/>
  <polygon points="266.492 7.311 266.982 6.821 267.773 7.611 268.563 6.821 269.053 7.311 268.263 8.101 269.053 8.891 268.563 9.382 267.773 8.591 266.982 9.382 266.492 8.891 267.283 8.101 266.492 7.311" style="fill: #ed1c24;fill-rule: evenodd"/>
  <polygon points="266.492 16.853 266.982 16.363 267.773 17.153 268.563 16.363 269.053 16.853 268.263 17.643 269.053 18.434 268.563 18.924 267.773 18.133 266.982 18.924 266.492 18.434 267.283 17.643 266.492 16.853" style="fill: #ed1c24;fill-rule: evenodd"/>
  <polygon points="266.492 26.395 266.982 25.905 267.773 26.696 268.563 25.905 269.053 26.395 268.263 27.186 269.053 27.976 268.563 28.466 267.773 27.676 266.982 28.466 266.492 27.976 267.283 27.185 266.492 26.395" style="fill: #ed1c24;fill-rule: evenodd"/>
  <polygon points="258.195 7.311 258.685 6.821 259.475 7.611 260.265 6.821 260.756 7.311 259.965 8.101 260.756 8.891 260.265 9.382 259.475 8.591 258.685 9.382 258.195 8.891 258.985 8.101 258.195 7.311" style="fill: #ed1c24;fill-rule: evenodd"/>
  <polygon points="258.195 26.395 258.685 25.905 259.475 26.696 260.265 25.905 260.756 26.395 259.965 27.186 260.756 27.976 260.265 28.466 259.475 27.676 258.685 28.466 258.195 27.976 258.985 27.185 258.195 26.395" style="fill: #ed1c24;fill-rule: evenodd"/>
  <rect x="252.786" y="9.78" width="13.378" height="15.717" style="fill: none;stroke: #231f20;stroke-miterlimit: 3.86371;stroke-width: 0.2535px"/>
  <path d="M228.5,50.594" style="fill: none;stroke: #956338;stroke-miterlimit: 3.86371;stroke-width: 1.0139px;fill-rule: evenodd"/>
  <polygon points="231.846 7.566 231.432 7.366 231.649 7.758 238.174 14.438 237.407 15.252 237.655 15.475 239.979 12.968 239.731 12.714 238.913 13.607 231.846 7.566" style="fill: #33a3dc;fill-rule: evenodd"/>
  <path d="M249.16,49.108a2.067,2.067,0,0,1-2.628.281,3.573,3.573,0,0,0-3.472,0,1.731,1.731,0,0,1-2.361,0,3.846,3.846,0,0,0-3.611.111,1.648,1.648,0,0,1-2.139-.083,3.541,3.541,0,0,0-3.389.056s-.945.806-1.778.285l-1.21-.694v-1.94l1.21.689c.833.52,1.778-.285,1.778-.285a3.541,3.541,0,0,1,3.389-.056,1.648,1.648,0,0,0,2.139.083,3.846,3.846,0,0,1,3.611-.111,1.731,1.731,0,0,0,2.361,0,3.573,3.573,0,0,1,3.472,0,2.057,2.057,0,0,0,2.628-.315Z" style="fill: #c7c8ca;fill-rule: evenodd"/>
  <polygon points="249.154 29.266 249.154 26.524 228.572 25.154 228.572 29.266 249.154 29.266" style="fill: #00a651;fill-rule: evenodd"/>
  <path d="M229.24,51.888l.542.315c.833.52,1.778-.285,1.778-.285a3.541,3.541,0,0,1,3.389-.056,1.648,1.648,0,0,0,2.139.083,3.845,3.845,0,0,1,3.611-.111,1.731,1.731,0,0,0,2.361,0,3.573,3.573,0,0,1,3.472,0,2.057,2.057,0,0,0,2.628-.315V53.5a2.067,2.067,0,0,1-2.628.281,3.573,3.573,0,0,0-3.472,0,1.731,1.731,0,0,1-2.361,0,3.845,3.845,0,0,0-3.611.111,1.648,1.648,0,0,1-2.139-.083,3.541,3.541,0,0,0-3.389.056,2.21,2.21,0,0,1-.544.33,3.62,3.62,0,0,1-.97-.929A5.058,5.058,0,0,1,229.24,51.888Z" style="fill: #c7c8ca;fill-rule: evenodd"/>
  <path d="M249.16,59.9l-.472-.54a9,9,0,0,0-2.264-1.608,20.742,20.742,0,0,0-3.751-1.313c.241-.127.387-.214.387-.214a3.573,3.573,0,0,1,3.472,0,2.057,2.057,0,0,0,2.628-.315Z" style="fill: #c7c8ca;fill-rule: evenodd"/>
  <line x1="228.552" y1="29.269" x2="269.792" y2="29.269" style="fill: none;stroke: #231f20;stroke-miterlimit: 3.86371;stroke-width: 1.0139px"/>
  <line x1="249.155" y1="6.041" x2="249.16" y2="59.858" style="fill: none;stroke: #231f20;stroke-miterlimit: 3.86371;stroke-width: 1.0139px"/>
  <path d="M249.622,59.358c3.862-4.033,14.825-3.919,14.825-3.919,4.715-.681,5.348-5.733,5.348-5.733V6.053H228.572V49.706s.577,5.051,5.291,5.733c0,0,10.963-.114,14.825,3.919l.472.54Z" style="fill: none;stroke: #231f20;stroke-miterlimit: 3.86371;stroke-width: 1.0139px;fill-rule: evenodd"/>
</svg>

