<?xml version="1.0" encoding="UTF-8" standalone="no"?>
<!-- Created with Inkscape (http://www.inkscape.org/) -->

<svg
   version="1.1"
   id="svg1"
   width="1510.0554"
   height="1510.1161"
   viewBox="0 0 1510.0552 1510.1159"
   sodipodi:docname="latxa-logo.svg"
   inkscape:version="1.4.2 (2aeb623e1d, 2025-05-12)"
   xml:space="preserve"
   xmlns:inkscape="http://www.inkscape.org/namespaces/inkscape"
   xmlns:sodipodi="http://sodipodi.sourceforge.net/DTD/sodipodi-0.dtd"
   xmlns="http://www.w3.org/2000/svg"
   xmlns:svg="http://www.w3.org/2000/svg"><defs
     id="defs1"><inkscape:path-effect
       effect="simplify"
       id="path-effect3"
       is_visible="true"
       lpeversion="1.3"
       threshold="0.01"
       steps="1"
       smooth_angles="360"
       helper_size="10"
       simplify_individual_paths="false"
       simplify_just_coalesce="false" /><inkscape:path-effect
       effect="simplify"
       id="path-effect2"
       is_visible="false"
       lpeversion="1.3"
       threshold="1"
       steps="1"
       smooth_angles="0"
       helper_size="5"
       simplify_individual_paths="false"
       simplify_just_coalesce="false" /><inkscape:path-effect
       effect="simplify"
       id="path-effect1"
       is_visible="false"
       lpeversion="1.3"
       threshold="5"
       steps="1"
       smooth_angles="360"
       helper_size="10"
       simplify_individual_paths="false"
       simplify_just_coalesce="false" /></defs><sodipodi:namedview
     id="namedview1"
     pagecolor="#ffffff"
     bordercolor="#000000"
     borderopacity="0.25"
     inkscape:showpageshadow="2"
     inkscape:pageopacity="0.0"
     inkscape:pagecheckerboard="0"
     inkscape:deskcolor="#d1d1d1"
     inkscape:zoom="0.35355339"
     inkscape:cx="46.669048"
     inkscape:cy="220.61732"
     inkscape:window-width="2560"
     inkscape:window-height="1378"
     inkscape:window-x="0"
     inkscape:window-y="0"
     inkscape:window-maximized="1"
     inkscape:current-layer="g1"
     showgrid="true"
     showguides="true"><inkscape:grid
       id="grid1"
       units="px"
       originx="-1414.9444"
       originy="-1463.9998"
       spacingx="0.99999988"
       spacingy="0.9999999"
       empcolor="#0099e5"
       empopacity="0.30196078"
       color="#0099e5"
       opacity="0.14901961"
       empspacing="5"
       enabled="true"
       visible="true" /></sodipodi:namedview><g
     inkscape:groupmode="layer"
     inkscape:label="latxa-logo"
     id="g1"
     style="display:inline"
     transform="translate(-1421.5466,-1524.3667)"><g
       id="g15"
       style="display:inline"
       transform="matrix(1.1693344,0,0,1.1693344,1570.1589,1499.8675)"
       inkscape:label="latxa"><path
         style="fill:#b6ced9"
         d="m 682.00005,775.72081 c 13.82764,-4.84677 12.04625,-13.32099 -6.66812,-31.72075 -19.26287,-18.93905 -41.38218,-42.34427 -27.0977,-29.50255 11.55222,10.38542 35.7868,28.00258 65.51095,44.75905 7.53521,4.24784 7.11906,5.50015 -3.54963,10.68175 -6.78634,3.296 -23.64726,7.49347 -29.28266,7.28982 -2.39264,-0.0865 -2.19848,-0.35565 1.08716,-1.50732 z m 98.90063,-37.563 c 13.07355,-11.88665 4.73381,-28.33719 -19.80193,-41.22433 -19.37272,-10.17531 -35.3654,-21.6762 -56.8593,-40.88948 -15.54606,-13.89653 -37.81377,-35.98663 -24.24515,-26.12617 18.21135,13.23439 78.46835,51.39032 101.45181,61.48352 22.4273,9.84896 21.94949,54.4878 -9.45732,52.57634 -0.79757,0.002 -12.1192,-1.82389 -7.07108,-1.38062 2.72871,0.2396 11.83892,-0.67143 15.98297,-4.43926 z M 415.7883,729.93828 c -2.28339,-4.26656 4.35269,-16.90923 14.83436,-32.7749 6.16017,-9.3244 9.42253,-10.58162 12.76111,-5.09779 l 2.3601,3.87662 -5.65455,8.23976 c -7.71784,11.24639 -9.73973,14.23968 -14.06204,20.81809 -4.14366,6.30652 -8.28664,8.58619 -10.23898,4.93822 z m 46.19857,-58.89989 -0.82657,-6.67719 4.98857,-5.53689 c 13.44149,-14.91892 31.04233,-21.25592 32.35409,-16.69374 0.369,1.28333 3.87211,5.2352 4.3583,6.40873 0.66135,1.59633 -3.67907,4.5188 -10.46184,8.84802 -4.98633,3.1826 -11.46605,7.66486 -14.39938,9.96058 -7.95752,6.22778 -15.19618,10.29021 -16.01317,3.69049 z m -227.0494,-107.7138 c 0.47645,-2.38333 9.66263,-10.50655 11.08544,-15.10435 l 2.64378,-8.5434 10.84945,-4.14043 c 37.97506,-14.49225 73.80597,-53.99684 74.84639,-87.39292 0.11777,-3.78043 0.49679,1.17406 1.32732,8.37766 2.83007,24.54666 -3.19272,46.27182 -21.67164,69.88868 -8.89794,11.37194 -13.65474,15.78601 -17.76417,7.13967 -1.81383,-3.81633 0.0754,-7.96392 -0.71946,-7.42558 -1.53291,1.03823 -2.70758,9.28191 -4.14313,14.42723 -2.61478,9.37198 -7.80131,10.28844 -16.58705,14.70998 -9.11739,4.58844 -25.22113,10.07225 -29.57816,10.07225 -2.1013,0 -11.01898,1.64386 -10.28877,-2.00879 z m -21.92095,2.14851 c -2.5562,-0.45904 -10.99339,-1.15223 -20.82515,-4.63121 -10.57117,-3.74062 -17.49416,-7.84255 -18.79113,-9.02233 -5.73264,-5.21467 -7.21948,-1.96783 1.66846,-12.51617 l 9.68937,-11.49949 10.62097,4.62495 c 5.84154,2.54372 12.61152,5.04444 15.0444,5.55713 5.87561,1.23821 11.53764,6.23272 8.56416,18.01571 -2.44171,9.67574 6.80374,11.76547 -5.97108,9.47141 z m 604.98354,-78.92672 c -62.06618,-10.63113 -105.2412,-58.83665 -87.06831,-97.21302 3.8206,-8.06809 14.38936,-19.59817 12.22167,-13.33333 -6.44675,18.63177 10.68631,58.87869 25.1043,58.66667 2.49034,-0.0366 2.49605,-7.0082 1.7884,-16.33333 -1.03038,-13.57801 1.3401,-20.22071 2.35561,-12.33334 2.24302,17.42122 17.09847,28.00138 31.01535,32.89784 13.91687,4.89647 30.26233,3.333 45.58689,-5.86173 6.74538,-4.04723 14.90535,-5.27104 20.39175,-4.38938 5.48639,0.88165 8.29922,3.86878 4.81279,8.43972 -1.78284,2.33742 -5.88464,6.81289 -7.07329,10.397 -1.18865,3.5841 -4.51764,9.62035 -7.39776,13.41387 l -5.23658,6.89732 -2.62441,-0.53502 c -6.9925,-1.4255 -13.33624,-1.29763 -17.85497,2.39813 -4.51872,3.69575 -9.21822,11.21407 -4.45781,15.85096 13.07261,12.7334 -0.17248,2.9888 -11.56363,1.03764 z m -489.83176,-82.49965 -1.93884,-6.86742 5.81809,-8.35225 c 3.18386,-4.57066 8.16261,-11.26446 9.1875,-15.46086 2.06847,-8.46936 9.128,-10.2087 12.75049,-7.55987 6.87703,5.02861 -14.74607,45.82752 -23.61624,45.82752 -0.61813,0 -1.16489,-3.91717 -2.201,-7.58712 z"
         id="path17"
         sodipodi:nodetypes="sssssssssssscssssscsssscsssssssscsssssssssssssscsssssssssssssssscssssscsssss"
         inkscape:label="shadows" /><path
         style="display:inline;fill:#0a0f28;fill-opacity:1"
         d="m 704.62043,917.30913 c -5.737,-2.13742 -5.7909,-2.63304 -6.21381,-57.13278 -0.42788,-55.14061 -0.54599,-56.17629 -6.40657,-56.17629 -5.86199,0 -5.97936,1.03156 -6.39305,56.18573 -0.46789,62.38139 1.14226,57.14762 -17.58118,57.14762 -20.24836,0 -18.69244,4.97086 -18.69244,-59.71837 v -53.5465 l -4.33333,-2.18942 c -7.6468,-3.86356 -18.31677,-12.54599 -22.48152,-18.29379 l -4.04698,-5.58527 -12.90242,-0.0354 c -17.2618,-0.0474 -24.27644,-2.46214 -38.30611,-13.18677 -1.07685,-0.82317 -3.06753,0.16598 -6.09756,3.02981 -18.33908,17.33314 -53.60551,16.65989 -71.82763,-1.37124 l -4.66221,-4.61334 -7.79845,5.74089 c -9.82908,7.23576 -22.55609,11.34786 -33.89058,10.95007 l -8.34677,-0.29293 -4.98656,6.606 c -2.74261,3.6333 -7.83656,9.20997 -11.31989,12.3926 l -6.33334,5.78661 v 26.9454 26.94539 l -0.67605,51.17037 c -0.15531,11.75573 -6.8743,9.26589 -18.39003,9.26589 -18.24513,0 -16.70878,5.04564 -17.1931,-56.46509 -0.42867,-54.44212 -0.55475,-55.53492 -6.40749,-55.53492 -5.85795,0 -5.98132,1.0781 -6.35764,55.55804 -0.42492,61.51604 1.21574,56.44197 -18.25009,56.44197 -17.92061,0 -16.7256,3.11315 -16.7256,-43.5727 0,-41.78068 -0.67694,-47.09398 -6,-47.09398 -2.65835,0 -4.15835,1.33158 -4.99376,7.84348 -0.83542,6.51189 -1.00625,18.20411 -1.00625,38.92538 l -0.61083,33.92935 c -0.23299,12.94211 -10.77684,10.10568 -20.02772,10.12691 -19.35106,0.0444 -17.59964,5.00262 -16.69478,-72.33512 -0.36144,-11.17478 -0.33334,-33.54021 -0.33334,-33.54021 l -0.33333,-33.54022 -11.33333,-1.5759 c -33.95155,-4.72098 -57.5276,-29.59112 -59.67489,-62.95044 -0.55399,-8.60649 -1.19838,-11.26952 -2.85368,-11.79326 -35.8947,-11.35713 -52.77946,-44.75856 -38.62652,-76.41099 4.15608,-9.2949 4.21708,-9.68242 1.73146,-11.00036 -30.2341,-16.03097 -38.14104,-64.6504 -15.44267,-94.95624 2.76921,-3.69732 5.47662,-7.46307 6.01648,-8.36833 0.59752,-1.00196 -1.5796,-4.72345 -5.56459,-9.51191 -23.23346,-27.91783 -28.00516,-64.64071 -12.69329,-97.68718 l 4.71607,-10.17835 -5.41655,-8.98076 c -9.51465,-15.7755 -12.37443,-32.74864 -9.29294,-55.15476 0.38723,-2.8156 -0.36244,-3.36137 -6.89889,-5.02246 -22.01508,-5.59464 -45.271909,-25.75088 -45.320828,-39.27869 -0.04648,-12.85336 40.352688,-17.23713 61.136518,-6.63401 l 5.44495,2.77781 1.83882,-3.00856 c 1.01134,-1.6547 3.40618,-5.77869 5.32187,-9.16441 8.03884,-14.20761 27.69503,-27.0945 43.78412,-28.70554 6.68843,-0.66973 9.75827,-1.78752 14.65183,-5.33505 17.51041,-12.69395 43.37072,-12.69876 61.03066,-0.0114 4.63979,3.33335 8.15632,4.66143 14.14359,5.34157 17.07811,1.94001 35.10303,15.18399 44.39686,32.621 l 4.23102,7.9382 7.96834,-3.21856 c 19.39658,-7.83463 44.77274,-6.59661 55.59497,2.71228 10.92153,9.3943 -17.29767,38.06178 -43.27388,43.96129 -10.97476,2.4925 -11.5476,8.83673 -0.94883,10.50837 28.95469,4.56675 49.99048,33.24104 48.33639,65.88826 l -0.61869,12.21126 7.47449,2.31096 c 22.43152,6.93538 37.30153,20.47758 43.57506,39.68404 2.80698,8.59362 2.54095,8.33668 6.19115,5.97968 15.80609,-10.20631 52.79959,-7.34939 66.60429,5.14368 2.06419,1.86807 2.70485,1.72412 7.03887,-1.5816 16.14977,-12.31803 46.82894,-13.46155 61.82847,-2.30456 l 4.43002,3.29514 2.91993,-2.74313 c 9.74361,-9.15365 31.33926,-11.77521 44.88671,-5.44894 l 7.33334,3.42446 6.91409,-7.51611 c 6.71914,-7.30418 6.87982,-7.66391 5.69848,-12.75779 -3.34353,-14.4171 1.58713,-31.70822 12.40024,-43.48593 l 5.68769,-6.19507 -0.0169,-13.78034 c -0.0198,-16.12687 2.92033,-24.20935 13.17125,-36.20819 4.81886,-5.64053 5.67989,-7.40173 4.57971,-9.36764 -6.29252,-11.24411 0.10727,-34.07967 13.22824,-47.20064 l 7.93488,-7.93488 -2.47879,-4.83167 c -20.04008,-39.06214 -11.75539,-105.23734 13.175,-105.23734 11.7962,0 27.30633,37.13595 33.13422,79.33334 0.85902,6.21976 2.17232,7.80393 4.00769,4.83425 4.21478,-6.81966 30.41485,-11.63736 41.76666,-7.68009 5.51847,1.92374 3.99047,4.95106 16.67005,-33.02721 12.56307,-37.62927 14.2375,-41.43578 18.72221,-42.56137 20.16056,-5.05998 32.65344,43.77478 20.21625,79.02551 l -1.91266,5.42106 11.09942,5.49998 c 18.07531,8.95667 28.83818,23.26606 30.72056,40.84343 1.06502,9.94498 0.61777,9.24703 10.98941,17.14944 20.63447,15.72193 17.46245,36.48419 -7.35903,48.16813 -7.57363,3.56505 -8.13873,2.84125 24.9847,32.0014 15.91115,14.00734 16.77171,18.27523 6.03895,29.94979 -8.21834,8.9395 -10.03447,13.57385 -7.24396,18.48492 2.90831,5.1184 6.26566,6.65895 8.41494,3.9115 3.47242,-4.43884 5.91014,-5.5689 3.22722,2.29603 -2.65271,7.77635 -8.26861,13.54508 -13.69167,18.1928 -30.34425,26.00593 -83.56497,-2.53079 -60.25337,-31.46806 l 3.18893,-3.9585 3.82615,4.54899 c 10.14007,12.05576 20.79945,15.88933 31.61522,11.37021 12.11399,-5.06154 10.45163,-14.42492 -4.7869,-26.96267 -5.10758,-4.20234 -6.00559,-9.02731 -2.55004,-13.70119 l 2.79506,-3.78051 -12.95693,-11.27555 C 860.8207,364.4027 858.2995,362.4472 855.43455,363.32855 c -17.40249,5.35359 -29.93779,2.47558 -43.30805,-9.94319 -5.41677,-5.03129 -6.19452,-5.35005 -10,-4.09846 -19.59741,6.44543 -42.58782,-12.1938 -42.70551,-34.62303 -0.0921,-17.55819 6.46777,-24.84733 11.70465,-13.00582 7.43992,16.82299 19.53883,22.03405 34.07835,14.67773 4.57057,-2.3125 7.42457,-3.11704 7.7366,-2.18095 3.50473,10.51419 15.42833,20.55436 25.56711,21.52857 l 6.44206,0.619 0.90657,-6.83411 c 1.57889,-11.90226 5.38753,-14.70998 9.40789,-6.93546 6.42519,12.42496 25.32555,20.06566 39.73587,16.06372 5.45118,-1.51387 6.42703,-3.29727 2.48828,-4.54739 -6.55569,-2.08069 -15.73285,-14.59065 -19.65584,-26.79408 -7.79792,-24.25736 -29.34242,-36.37422 -52.99718,-29.80617 -4.54288,1.26139 -6.12788,1.00182 -13.16405,-2.15583 -13.91247,-6.24354 -27.3454,-3.30022 -41.99057,9.20068 -4.17108,3.56037 -8.81003,6.21305 -11.8687,6.78686 -22.43302,4.20846 -32.37451,25.59197 -20.71089,44.54778 l 4.11746,6.69172 -4.55123,2.81281 c -7.66496,4.73721 -15.85126,14.95657 -18.36233,22.9226 -3.08334,9.78147 -3.02321,10.34553 2.42342,22.73341 5.16507,11.74749 5.14559,11.83935 -3.00163,14.15513 -52.34359,14.87824 6.80626,88.10378 90.77876,112.38106 31.0172,8.96738 44.14102,-4.76122 25.05437,-26.07695 -6.64957,-7.42615 -7.22003,-10.01289 -4.72794,-18.13909 2.72039,-8.87065 11.33909,-10.73466 21.30098,-7.42535 4.70371,1.56257 6.96097,3.43942 10.48751,7.09319 17.9525,18.73507 20.70337,42.75339 7.2108,62.95868 -5.00601,7.49655 -5.29203,8.38023 -3.39199,10.47975 15.935,17.60797 14.21312,48.74896 -3.66035,66.19904 l -7.29666,7.12382 3.79256,9.13089 c 11.20735,26.98263 0.78865,56.22226 -24.61258,69.07411 -6.90524,3.49373 -7.4793,4.12096 -6.6569,7.27345 7.98567,30.61137 -8.4008,61.22132 -37.33864,69.74859 -3.83519,1.13014 -5.65787,0.76935 -6.52453,9.22359 -0.86666,8.45424 -0.7829,44.07946 -0.78839,62.11377 0,0 -0.11685,-0.005 0.0174,8.36208 1.03974,64.80222 3.70554,62.55626 -13.80587,62.81617 -5.15304,0.0765 -18.18698,0.0289 -20.17172,-3.84988 -2.06951,-4.04448 -2.06022,-39.46269 -2.06022,-39.46269 0,-42.20464 -0.66906,-47.50157 -6,-47.50157 -5.32755,0 -6,5.304 -6,47.32565 0,45.97117 1.01603,43.0876 -15.44823,43.84323 -5.80347,0.26636 -11.7726,0.0294 -13.26473,-0.52648 z M 381.24818,775.13902 c 4.81352,-1.2069 11.01859,-3.62499 13.78904,-5.37353 l 5.03719,-3.17917 -3.19041,-4.29313 c -1.75473,-2.36122 -4.76483,-7.03453 -6.68912,-10.38512 -3.46087,-6.02612 -3.60338,-6.10835 -13.18011,-7.60498 -40.10814,-6.26802 -91.06899,-30.81806 -118.13702,-56.91172 -14.15662,-13.64702 -13.99374,-13.61989 -16.71563,-2.78396 -9.28749,36.97365 23.97701,75.38185 46.83945,54.08225 3.97744,-3.70555 4.76436,-3.46607 9.08168,2.76383 18.47421,26.65828 53.9242,41.01712 83.16493,33.68553 z m 312.33137,0.16325 c 10.03118,-2.08889 22.28752,-7.26217 25.02779,-10.56398 1.25538,-1.51265 0.33215,-2.55353 -4.86216,-5.48173 -28.34205,-15.97733 -42.4476,-25.14545 -55.74513,-36.23241 -42.31639,-35.28175 -59.37143,-53.40201 -81.64547,-86.74482 l -10.05658,-15.05405 -6.14898,0.88303 c -11.07218,1.59004 -30.00528,5.88137 -31.19435,7.07044 -1.25347,1.25348 3.37991,11.22506 10.29433,22.15463 6.06724,9.59046 12.28572,21.01722 25.04817,46.02731 12.96205,25.40122 14.71393,28.37537 20.27634,34.42287 13.03671,14.17364 33.04367,12.38886 49.44552,-4.41094 3.95886,-4.05491 7.44683,-7.37256 7.75105,-7.37256 0.30421,0 0.98777,6.1308 1.51901,13.624 1.84761,26.06064 10.73161,38.30892 30.71096,42.34086 7.87638,1.5895 8.93658,1.55362 19.5795,-0.66265 z M 455.35809,741.31812 c 7.18337,-4.43958 10.65551,-11.08013 8.55905,-16.36942 -5.03408,-12.70081 -21.60239,-35.64376 -25.70733,-35.59818 -2.97912,0.0331 -17.99778,25.1334 -19.97969,33.39158 -3.49329,14.55575 22.54987,27.58577 37.12797,18.57602 z m 81.67519,1.34301 c 11.16902,-6.80975 9.38418,-11.80689 -28.17007,-78.86952 -5.60808,-10.01465 -9.67719,-19.05548 -10.1965,-19.66667 -3.14426,-3.70056 -18.05157,4.82775 -31.88045,15.78042 l -5.37993,4.26099 7.45646,8.91685 c 4.10105,4.90427 8.44238,10.11685 9.6474,11.58352 4.03312,4.90885 13.00286,19.9171 16.73431,28 9.8229,21.27794 14.27842,27.7099 21.31863,30.77545 6.13608,2.67187 15.3857,2.31895 20.47015,-0.78104 z m 247.27801,-2.28016 c 11.91799,-6.99968 12.16608,-28.64249 0.58367,-43.36756 -1.96635,-2.49988 -5.37426,-3.8738 -9.69879,-5.77292 -88.43414,-38.8359 -170.00903,-119.54701 -200.91552,-198.78808 -2.37289,-6.08384 -4.66361,-6.43705 -18.76944,-2.89409 l -5.1555,1.29491 0.87924,5.57341 c 3.34731,21.21845 23.62121,70.42092 42.30637,102.67278 35.32171,60.96769 94.98327,113.01654 160.45874,139.98449 13.52804,5.57191 22.3872,5.951 30.31123,1.29706 z m -393.9834,-37.52913 c 27.66571,-53.39863 83.3289,-94.07477 149.00549,-108.88645 5.86666,-1.32308 10.893,-2.58287 11.16963,-2.79955 0.27663,-0.21667 -2.06584,-6.40992 -5.20548,-13.76277 l -5.70845,-13.36882 -5.46119,0.79136 c -72.48027,10.50291 -166.56234,83.62814 -174.84381,135.89726 l -0.83612,5.27719 11.77604,3.53048 c 6.47682,1.94177 12.42794,3.59177 13.22473,3.66667 0.79678,0.0749 3.89241,-4.58052 6.87916,-10.34537 z m -60.40376,-13.85179 c 1.03453,-2.38333 3.72482,-8.45069 5.97843,-13.48303 5.22453,-11.66643 5.1947,-11.95328 -1.55756,-14.98114 -44.85496,-20.11389 -64.37244,-64.25962 -49.58545,-112.15517 7.68625,-24.89601 10.50808,-28.37772 15.12551,-18.66255 7.42366,15.61954 22.01415,24.75556 37.05606,23.2031 11.01426,-1.13677 10.77473,-0.53532 10.0612,-25.26313 -0.81985,-28.41247 1.34911,-44.3066 11.58467,-84.89243 10.85155,-43.02836 10.90675,-55.86569 0.28902,-67.22111 -3.1635,-3.38329 -13.45683,-9.72324 -14.02366,-8.63758 -0.12243,0.2345 -1.88228,3.92632 -3.91077,8.20406 -2.02849,4.27774 -6.0729,11.00581 -8.98758,14.95127 l -5.29941,7.17355 4.00605,13.86411 c 16.26127,56.27683 -16.77405,112.45679 -74.32333,126.39446 -8.35104,2.02251 -7.67357,0.9187 -11.76708,19.17225 -12.21991,54.49035 12.98937,102.10665 69.44933,131.17868 12.8335,6.60815 13.51588,6.65769 15.90457,1.15466 z m -98.8579,-23.16957 c 2.34692,-1.19326 4.46923,-2.34537 4.71625,-2.56023 0.24702,-0.21487 -2.42312,-4.78857 -5.93364,-10.16377 -5.40515,-8.27621 -10.86072,-19.51673 -14.30819,-29.48028 -2.00618,-5.79807 -16.70426,6.38108 -19.67763,16.30532 -5.65961,18.8901 16.67322,35.32033 35.20321,25.89896 z m 591.03928,-1.92949 c 14.52348,-13.6441 4.35056,-33.22482 -22.77211,-43.83148 -63.00309,-24.63814 -136.30201,-80.07317 -166.98967,-126.29212 -5.23134,-7.87897 -4.28152,-7.62498 -16.34368,-4.3705 -8.75188,2.36134 -8.79998,2.58869 -2.98688,14.11722 28.30916,56.14265 91.52881,116.10101 157.09696,148.99284 30.96083,15.5313 44.43955,18.48238 51.99538,11.38404 z m -456.54401,-35.38914 6.40524,-8.15486 c 0,0 -4.28609,-8.27716 -6.22816,-12.51181 -3.45777,-7.53962 -6.56491,-15.2372 -9.64712,-22.93798 -0.43285,-1.08145 -1.2419,-3.26644 -1.2419,-3.26644 l -9.06258,2.51298 c -8.51413,2.3609 -18.83604,1.64342 -25.78695,-0.15369 -11.40337,-2.94827 -10.73753,-3.63656 -9.81985,3.66666 2.19337,17.4557 14.97976,34.36515 33.33634,44.08585 13.08304,6.92812 14.18511,6.76611 22.04498,-3.24071 z m 47.8298,-43.34137 c 3.33186,-2.52674 11.13186,-7.53056 17.33333,-11.11959 6.20147,-3.58904 11.51957,-6.71288 11.81799,-6.94187 0.29842,-0.229 -2.22156,-5.9722 -5.59996,-12.76267 -10.69399,-21.49459 -16.04188,-43.29543 -17.58349,-71.67965 -1.27238,-23.42714 -5.16637,-29.52566 -21.80656,-34.15205 -10.14367,-2.82019 -8.92085,-4.46453 -13.6246,18.32108 -9.34142,45.25118 -5.38773,97.3127 9.6393,126.92859 l 2.58651,5.09761 5.58977,-4.54868 c 3.07438,-2.50177 8.31584,-6.61602 11.64771,-9.14277 z m -204.05795,-0.62766 c 0,-5.56813 1.29858,-16.21814 2.88574,-23.66666 4.47118,-20.98331 4.48071,-20.92996 -4.21907,-23.62247 -4.03334,-1.24828 -10.90945,-3.88922 -15.28025,-5.86875 l -7.94692,-3.59915 -3.63364,4.44046 c -17.4407,21.31327 -1.82443,62.15162 23.86081,62.39877 l 4.33333,0.0417 z m 627.36709,3.96152 c 6.75412,-7.28782 5.4347,-19.31214 -3.00458,-27.38167 -4.90966,-4.69456 -7.12815,-5.587 -30.36246,-12.21411 -38.53332,-10.99082 -90.31482,-43.00848 -115.69476,-71.53665 -5.74855,-6.46162 -6.37873,-6.28808 -13.20747,3.63716 -6.03363,8.76957 -2.68417,15.82384 16.85248,35.49289 45.55282,45.86154 130.61127,87.9778 145.41679,72.00238 z M 511.99267,540.07169 c 15.75099,-3.29699 15.50108,-2.97996 12.10555,-15.35679 -4.51599,-16.46093 -10.70557,-25.30457 -23.43151,-33.47886 -9.48744,-6.0941 -33.08082,-2.5862 -45.17331,6.71643 -4.46315,3.43345 2.62863,23.98596 11.38931,33.00706 11.15244,11.48396 22.66707,13.8099 45.10996,9.11216 z m -259.819,-35.39634 c 41.91158,-12.01662 60.70027,-54.64323 43.1293,-97.84906 -5.16341,-12.69647 -5.39486,-11.49114 4.93334,-25.69113 18.43364,-25.34396 19.2276,-69.31333 1.0882,-60.26421 -6.69681,3.34081 -17.27788,3.91115 -22.49632,1.21259 l -4.27468,-2.21052 -6.01737,5.2967 c -13.70763,12.06594 -31.96204,12.42521 -45.43343,0.8942 -4.80491,-4.11282 -5.46225,-4.31737 -8.48879,-2.64155 -8.2518,4.56912 -21.76245,0.67015 -25.98714,-7.49951 -6.91526,-13.37263 4.07427,-31.8463 13.98413,-23.5077 2.34321,1.97167 4.96434,3.58152 5.82474,3.57743 4.4203,-0.021 12.1416,-3.24752 16.11017,-6.73197 5.74047,-5.0402 6.96694,-4.94262 8.01379,0.63755 3.51832,18.75425 32.56372,16.79183 36.17237,-2.44395 1.3185,-7.02816 3.93258,-6.89588 11.16146,0.56482 8.77633,9.05778 24.55928,9.85222 22.33216,1.12409 -2.61603,-10.25227 -15.54114,-18.47644 -29.03759,-18.47644 -8.42198,0 -8.83246,-0.16549 -16.50809,-6.65548 -13.77216,-11.6448 -26.72103,-10.33326 -33.77153,3.42059 -1.3038,2.54341 -2.31548,2.71798 -12.61777,2.17725 -25.31847,-1.32888 -44.00132,19.04729 -36.97768,40.32914 1.56428,4.73981 1.45058,5.16859 -2.43511,9.18356 -13.11251,13.54876 -12.24071,36.83207 2.30363,61.52379 6.63738,11.26818 6.63852,11.29914 0.86068,23.54944 -27.43992,58.17868 18.70233,117.51953 78.13153,100.48037 z M 215.47873,490.352 c -7.52754,-1.99135 -18.49412,-12.84976 -17.91471,-17.73799 0.71447,-6.02774 4.08724,-7.03831 9.55962,-2.86432 16.36914,12.48535 26.9073,-4.67103 11.7364,-19.10716 -18.67496,-17.7705 -14.47677,-24.51488 15.48334,-24.87392 12.88471,0.13997 15.96592,-0.0579 23.19393,3.56359 7.32222,3.66865 4.49908,10.85615 -4.76178,18.66722 -8.08303,6.81764 -10.10884,9.82103 -10.10884,14.98699 0,10.02053 10.97241,13.80142 18.82412,6.48644 3.42533,-3.19118 4.32835,-3.35355 7.9302,-1.4259 12.83685,6.87007 -17.27913,27.94787 -31.46382,22.02112 -4.03771,-1.68706 -5.20997,-1.68706 -9.24768,0 -5.21757,2.18004 -5.9998,2.19683 -13.23078,0.28393 z M 189.93728,369.16923 c -2.89883,-3.0236 -7.9706,-6.69754 -11.2706,-8.1643 -11.29841,-5.02183 -13.44401,-9.29336 -7.15352,-14.24146 12.39394,-9.74908 41.62395,13.42464 31.08417,24.64371 -4.24714,4.52088 -6.5746,4.10944 -12.66005,-2.23795 z m 78.5672,2.1037 c -8.78392,-13.40595 22.20357,-35.05918 33.41928,-23.3525 4.99863,5.21744 3.98177,7.08074 -6.86389,12.57737 -4.98292,2.52537 -11.12755,6.74647 -13.65474,9.38024 -5.47185,5.7026 -9.77338,6.16771 -12.90065,1.39489 z m 527.33863,14.88633 c -17.71801,-6.33154 -22.22908,-18.96476 -8.40149,-23.52828 14.62677,-4.82727 32.69219,8.69646 29.35877,21.97789 -0.99591,3.96801 -11.92858,4.7768 -20.95728,1.55039 z"
         id="path16"
         sodipodi:nodetypes="sssssscsscsssscsscsscccssssssssscsscccssssssssscssssscssssssscssssscsssssscsscssscsssscsssssssscssssssssssscsssscssssssssscsssssssssscsssssssssssscssssssssssssssssscssssssssssssscssssssssssssssssssscsssssssssscsssssssscsscssssssssssssssscssssssssssssssssssscaacssssssssssssscsssssscsscssssssssssssssssssscsssssssssssssssssssssssssssssssssssssssssssssss"
         inkscape:label="shape" /></g><path
       style="font-size:285.807px;font-family:'Katahdin Round';-inkscape-font-specification:'Katahdin Round';text-align:center;text-anchor:middle;fill:#0a0f28;stroke-width:1.42904"
       d="m 307.59206,1222.1612 h 75.73885 c 8.57421,0 12.86132,4.2871 12.86132,12.8613 v 28.2949 c 0,8.5742 -4.28711,12.8613 -12.86132,12.8613 H 266.43585 c -8.57421,0 -12.86132,-4.2871 -12.86132,-12.8613 v -185.7746 c 0,-8.5742 4.28711,-12.8613 12.86132,-12.8613 h 28.29489 c 8.57421,0 12.86132,4.2871 12.86132,12.8613 z m 235.79049,-157.4797 c 7.14518,0 12.2897,3.4297 14.86197,10.2891 l 65.16399,186.3461 c 3.14388,9.1459 -0.57161,14.862 -10.57486,14.862 H 582.2523 c -7.43098,0 -12.2897,-3.4297 -14.57615,-10.5748 l -8.86002,-26.0085 h -62.87754 l -8.86002,26.0085 c -2.57226,7.1451 -7.43098,10.5748 -14.86196,10.5748 h -30.86716 c -10.00325,0 -13.71874,-5.7161 -10.57486,-14.862 l 65.44981,-186.3461 c 2.57226,-6.8594 7.43098,-10.2891 14.57615,-10.2891 z m 3.42969,128.0416 -19.72069,-58.5905 -18.00584,58.5905 z m 148.04754,83.4556 c -8.57421,0 -12.86131,-4.2871 -12.86131,-12.8613 v -144.6183 h -44.01428 c -8.57421,0 -12.86132,-4.2872 -12.86132,-12.8614 v -28.2949 c 0,-8.5742 4.28711,-12.8613 12.86132,-12.8613 h 142.04608 c 8.57421,0 12.86131,4.2871 12.86131,12.8613 v 28.2949 c 0,8.5742 -4.2871,12.8614 -12.86131,12.8614 h -44.01428 v 144.6183 c 0,8.5742 -4.2871,12.8613 -12.86132,12.8613 z m 236.93387,-154.6216 32.8678,-48.5872 c 3.71549,-5.4303 9.14583,-8.2884 15.71939,-8.2884 h 36.58326 c 10.5749,0 14.2904,6.8594 8.2884,15.7194 l -60.87686,89.1718 61.73436,90.8866 c 6.0019,8.86 2.2864,15.7194 -8.2884,15.7194 h -36.58334 c -6.57356,0 -12.0039,-2.8581 -15.71939,-8.2884 l -33.72522,-50.0162 -34.01104,50.0162 c -3.71549,5.4303 -9.14582,8.2884 -15.71938,8.2884 h -36.5833 c -10.57486,0 -14.29035,-6.8594 -8.2884,-15.7194 l 61.73431,-90.8866 -60.87689,-89.1718 c -6.00195,-8.86 -2.28646,-15.7194 8.2884,-15.7194 h 36.5833 c 6.57356,0 12.00389,2.8581 15.71938,8.2884 z m 254.36795,-56.8756 c 7.1451,0 12.2897,3.4297 14.8619,10.2891 l 65.164,186.3461 c 3.1439,9.1459 -0.5716,14.862 -10.5748,14.862 h -30.5814 c -7.431,0 -12.2897,-3.4297 -14.5761,-10.5748 l -8.86,-26.0085 h -62.8776 l -8.86,26.0085 c -2.5723,7.1451 -7.431,10.5748 -14.862,10.5748 h -30.8671 c -10.0033,0 -13.7188,-5.7161 -10.5749,-14.862 l 65.4498,-186.3461 c 2.5723,-6.8594 7.431,-10.2891 14.5762,-10.2891 z m 3.4297,128.0416 -19.7207,-58.5905 -18.0059,58.5905 z"
       id="text1"
       transform="translate(1421.5466,1524.3667)"
       aria-label="LATXA"
       inkscape:label="text" /></g></svg>
